<?xml version="1.0" encoding="UTF-8" standalone="no"?>
<svg
   xmlns="http://www.w3.org/2000/svg"
   version="1.1"
   viewBox="0 0 381.32162 300.69355"
   height="3.3410394in"
   width="4.236907in"
  >
  <g
     transform="translate(-679.61681,-192.17161)"
     id="layer1" />
  <g
     style="display:inline"
     transform="translate(-679.61681,-192.17161)"
     id="layer2">
    <g
       id="g7115"
       transform="matrix(1.1471722,0,0,1.1471722,-199.30982,82.998522)">
      <path
         style="fill:#44aa00;fill-opacity:1;fill-rule:evenodd;stroke:#ffffff;stroke-width:13.69999981;stroke-linecap:butt;stroke-linejoin:round;stroke-miterlimit:4;stroke-dasharray:none;stroke-opacity:1"
         d="m 773.01718,189.90014 318.70312,0 -47.4772,-50.50763 -16.1624,12.12183 -22.7284,-17.67767 -12.62694,0.50508 -32.32489,-27.27412 -32.32488,26.26397 -6.06091,0 -33.84011,-31.31473 -31.31473,31.31473 -15.65737,0.50507 -13.63706,17.1726 -13.13198,-8.5863 z"
         id="path7117" />
      <path
         id="path7121"
         d="m 773.01717,189.90014 318.70313,0 -47.4772,-50.50763 -16.1624,12.12183 -22.7285,-17.67767 -12.62685,0.50508 -32.32489,-27.27412 -32.32488,26.26397 -6.06091,0 -33.84011,-31.31473 -31.31473,31.31473 -15.65737,0.50507 -13.63706,17.1726 -13.13198,-8.5863 z"
         style="fill:#44aa00;fill-opacity:1;fill-rule:evenodd;stroke:#000000;stroke-width:0.57445604;stroke-linecap:butt;stroke-linejoin:round;stroke-miterlimit:4;stroke-dasharray:none;stroke-opacity:1" />
      <path
         id="path7123"
         d="m 813.90372,150.31942 -4.90292,13.35369 1.89709,12.58997 13.13198,-17.17259 z"
         style="fill:#ffffff;fill-opacity:1;fill-rule:evenodd;stroke:none;stroke-width:1px;stroke-linecap:butt;stroke-linejoin:miter;stroke-opacity:1" />
      <path
         id="path7125"
         d="m 844.738,139.39251 9.59645,21.71828 13.13198,4.54569 -10.10153,-27.27412 z"
         style="fill:#ffffff;fill-opacity:1;fill-rule:evenodd;stroke:none;stroke-width:1px;stroke-linecap:butt;stroke-linejoin:miter;stroke-opacity:1" />
      <path
         id="path7127"
         d="m 888.67963,108.58286 0,13.63706 -4.54568,9.09137 36.36549,35.35534 0,-23.73859 z"
         style="fill:#ffffff;fill-opacity:1;fill-rule:evenodd;stroke:none;stroke-width:1px;stroke-linecap:butt;stroke-linejoin:miter;stroke-opacity:1" />
      <path
         id="path7129"
         d="m 933.63142,137.37221 -0.50507,13.63706 5.55583,6.56599 0,9.59645 13.13199,4.54568 10.10152,-15.15229 z"
         style="fill:#ffffff;fill-opacity:1;fill-rule:evenodd;stroke:none;stroke-width:1px;stroke-linecap:butt;stroke-linejoin:miter;stroke-opacity:1" />
      <path
         id="path7131"
         d="m 961.41062,114.64377 -2.02031,9.09138 -4.54568,7.07106 14.14213,14.14214 5.05076,-5.55584 19.1929,20.20305 0,-16.16244 z"
         style="fill:#ffffff;fill-opacity:1;fill-rule:evenodd;stroke:none;stroke-width:1px;stroke-linecap:butt;stroke-linejoin:miter;stroke-opacity:1" />
      <path
         id="path7133"
         d="m 1002.8269,140.40266 0,11.61676 4.5457,4.04061 0.505,10.10152 6.566,4.54569 12.6269,-14.64721 z"
         style="fill:#ffffff;fill-opacity:1;fill-rule:evenodd;stroke:none;stroke-width:1px;stroke-linecap:butt;stroke-linejoin:miter;stroke-opacity:1" />
      <path
         id="path7135"
         d="m 1043.7381,146.46358 0,10.6066 -4.0407,4.54569 0,8.58629 37.8808,14.14214 z"
         style="fill:#ffffff;fill-opacity:1;fill-rule:evenodd;stroke:none;stroke-width:1px;stroke-linecap:butt;stroke-linejoin:miter;stroke-opacity:1" />
    </g>
  </g>
  <g
     transform="translate(-536.96339,-110.86543)"
     id="layer3">
    <g
       id="text8679"
       style="font-style:normal;font-variant:normal;font-weight:800;font-stretch:normal;font-size:64.56250763px;line-height:125%;font-family:'Rockwell Extra Bold';-inkscape-font-specification:'Rockwell Extra Bold, Ultra-Bold';text-align:start;letter-spacing:0px;word-spacing:0px;writing-mode:lr-tb;text-anchor:start;fill:#000000;fill-opacity:1;stroke:#ffffff;stroke-width:4.30000067;stroke-linecap:butt;stroke-linejoin:miter;stroke-miterlimit:4;stroke-dasharray:none;stroke-opacity:1">
      <path
         id="path4267"
         style="font-style:normal;font-variant:normal;font-weight:800;font-stretch:normal;font-size:64.56250763px;line-height:125%;font-family:'Rockwell Extra Bold';-inkscape-font-specification:'Rockwell Extra Bold, Ultra-Bold';text-align:start;writing-mode:lr-tb;text-anchor:start;stroke:#ffffff;stroke-width:4.30000067;stroke-miterlimit:4;stroke-dasharray:none;stroke-opacity:1"
         d="m 569.84329,272.63458 -4.12973,12.13699 7.84964,0 -3.71991,-12.13699 z m -4.12973,32.7226 -17.37008,0 0,-10.49771 3.34161,0 8.22794,-22.85538 -3.53077,0 0,-10.49772 31.52467,0 0,10.49772 -3.53077,0 8.38556,22.85538 3.21552,0 0,10.49771 -22.8869,0 0,-9.61502 3.846,0 -1.6708,-5.51682 -11.22278,0 -1.92301,5.51682 3.59381,0 0,9.61502 z" />
      <path
         id="path4269"
         style="font-style:normal;font-variant:normal;font-weight:800;font-stretch:normal;font-size:64.56250763px;line-height:125%;font-family:'Rockwell Extra Bold';-inkscape-font-specification:'Rockwell Extra Bold, Ultra-Bold';text-align:start;writing-mode:lr-tb;text-anchor:start;stroke:#ffffff;stroke-width:4.30000067;stroke-miterlimit:4;stroke-dasharray:none;stroke-opacity:1"
         d="m 620.15666,271.12139 0,8.35404 1.89148,0 q 3.71991,0 5.04394,-0.22067 1.41861,-0.22067 2.39588,-1.26099 0.97726,-0.97726 0.97726,-2.6796 0,-1.70233 -0.97726,-2.71112 -0.97727,-1.04031 -2.49045,-1.26098 -1.45014,-0.22068 -5.29614,-0.22068 l -1.54471,0 z m 3.31009,34.23579 -23.83265,0 0,-10.49771 3.56229,0 0,-22.85538 -3.56229,0 0,-10.49772 23.83265,0 q 3.21551,0 5.95816,0.1261 2.74264,0.0946 4.69717,0.31525 1.95453,0.18915 3.59381,0.53592 4.6026,0.97726 7.47135,4.25583 2.90027,3.34161 2.90027,7.88116 0,3.40467 -1.76538,6.17884 -1.76538,2.74264 -4.63413,4.03515 l 6.05274,10.02485 3.15246,0 0,10.49771 -15.79385,0 -9.55198,-17.90601 -5.39071,0 0,7.4083 3.31009,0 0,10.49771 z" />
      <path
         id="path4271"
         style="font-style:normal;font-variant:normal;font-weight:800;font-stretch:normal;font-size:64.56250763px;line-height:125%;font-family:'Rockwell Extra Bold';-inkscape-font-specification:'Rockwell Extra Bold, Ultra-Bold';text-align:start;writing-mode:lr-tb;text-anchor:start;stroke:#ffffff;stroke-width:4.30000067;stroke-miterlimit:4;stroke-dasharray:none;stroke-opacity:1"
         d="m 689.57396,286.03256 11.38041,4.00363 q -1.45014,7.03 -6.65171,11.5065 -5.26462,4.50803 -14.50134,4.50803 -12.60987,0 -18.6626,-6.58865 -6.08426,-6.55713 -6.08426,-16.01453 0,-9.52045 5.95816,-16.17215 5.95816,-6.65171 15.47861,-6.65171 7.72354,0 12.57834,3.81449 l 0,-2.9318 10.52924,0 0,16.01453 -10.93906,0 q -0.85117,-2.99484 -2.86875,-4.7287 -2.01757,-1.70233 -4.6026,-1.70233 -7.12457,0 -7.12457,12.26309 0,12.29462 7.37677,12.29462 6.46256,0 8.13336,-9.61502 z" />
      <path
         id="path4273"
         style="font-style:normal;font-variant:normal;font-weight:800;font-stretch:normal;font-size:64.56250763px;line-height:125%;font-family:'Rockwell Extra Bold';-inkscape-font-specification:'Rockwell Extra Bold, Ultra-Bold';text-align:start;writing-mode:lr-tb;text-anchor:start;stroke:#ffffff;stroke-width:4.30000067;stroke-miterlimit:4;stroke-dasharray:none;stroke-opacity:1"
         d="m 729.57877,305.35718 -23.07605,0 0,-10.49771 3.31009,0 0,-22.85538 -3.37314,0 0,-10.49772 23.1391,0 0,10.49772 -2.8057,0 0,6.68322 10.15095,0 0,-6.68322 -2.83722,0 0,-10.49772 23.10757,0 0,10.49772 -3.31009,0 0,22.85538 3.31009,0 0,10.49771 -23.10757,0 0,-10.49771 2.83722,0 0,-7.18763 -10.15095,0 0,7.18763 2.8057,0 0,10.49771 z" />
      <path
         id="path4275"
         style="font-style:normal;font-variant:normal;font-weight:800;font-stretch:normal;font-size:64.56250763px;line-height:125%;font-family:'Rockwell Extra Bold';-inkscape-font-specification:'Rockwell Extra Bold, Ultra-Bold';text-align:start;writing-mode:lr-tb;text-anchor:start;stroke:#ffffff;stroke-width:4.30000067;stroke-miterlimit:4;stroke-dasharray:none;stroke-opacity:1"
         d="m 804.73356,305.35718 -41.83323,0 0,-10.49771 3.40466,0 0,-22.85538 -3.46771,0 0,-10.49772 41.89628,0 0,14.02848 -11.50651,0 0,-3.53076 -9.96179,0 0,6.74627 8.66928,0 0,8.92148 -8.66928,0 0,7.18763 9.96179,0 0,-3.53077 11.50651,0 0,14.02848 z" />
      <path
         id="path4277"
         style="font-style:normal;font-variant:normal;font-weight:800;font-stretch:normal;font-size:64.56250763px;line-height:125%;font-family:'Rockwell Extra Bold';-inkscape-font-specification:'Rockwell Extra Bold, Ultra-Bold';text-align:start;writing-mode:lr-tb;text-anchor:start;stroke:#ffffff;stroke-width:4.30000067;stroke-miterlimit:4;stroke-dasharray:none;stroke-opacity:1"
         d="m 831.75019,271.12139 0,8.35404 1.89148,0 q 3.71991,0 5.04394,-0.22067 1.41861,-0.22067 2.39588,-1.26099 0.97726,-0.97726 0.97726,-2.6796 0,-1.70233 -0.97726,-2.71112 -0.97727,-1.04031 -2.49045,-1.26098 -1.45014,-0.22068 -5.29615,-0.22068 l -1.5447,0 z m 3.31009,34.23579 -23.83265,0 0,-10.49771 3.56229,0 0,-22.85538 -3.56229,0 0,-10.49772 23.83265,0 q 3.21551,0 5.95816,0.1261 2.74264,0.0946 4.69717,0.31525 1.95453,0.18915 3.59381,0.53592 4.6026,0.97726 7.47135,4.25583 2.90027,3.34161 2.90027,7.88116 0,3.40467 -1.76538,6.17884 -1.76539,2.74264 -4.63413,4.03515 l 6.05274,10.02485 3.15246,0 0,10.49771 -15.79385,0 -9.55198,-17.90601 -5.39071,0 0,7.4083 3.31009,0 0,10.49771 z" />
      <path
         id="path4279"
         style="font-style:normal;font-variant:normal;font-weight:800;font-stretch:normal;font-size:64.56250763px;line-height:125%;font-family:'Rockwell Extra Bold';-inkscape-font-specification:'Rockwell Extra Bold, Ultra-Bold';text-align:start;writing-mode:lr-tb;text-anchor:start;stroke:#ffffff;stroke-width:4.30000067;stroke-miterlimit:4;stroke-dasharray:none;stroke-opacity:1"
         d="m 896.59641,305.35718 -23.95874,0 0,-10.49771 3.53076,0 0,-6.96695 -11.06516,-15.88843 -2.99484,0 0,-10.49772 22.91843,0 0,10.49772 -2.61655,0 4.66565,8.953 5.64292,-8.953 -2.6796,0 0,-10.49772 16.86569,0 0,10.49772 -2.74264,0 -11.03363,15.88843 0,6.96695 3.46771,0 0,10.49771 z" />
    </g>
    <g
       id="text8683"
       style="font-style:normal;font-variant:normal;font-weight:800;font-stretch:normal;font-size:40px;line-height:125%;font-family:'Rockwell Extra Bold';-inkscape-font-specification:'Rockwell Extra Bold, Ultra-Bold';text-align:start;letter-spacing:0px;word-spacing:0px;writing-mode:lr-tb;text-anchor:start;fill:#000000;fill-opacity:1;stroke:#ffffff;stroke-width:4.30000067;stroke-linecap:butt;stroke-linejoin:miter;stroke-miterlimit:4;stroke-dasharray:none;stroke-opacity:1">
      <path
         id="path4242"
         style="stroke:#ffffff;stroke-width:4.30000067;stroke-miterlimit:4;stroke-dasharray:none;stroke-opacity:1"
         d="m 564.12811,255.82024 -14.29687,0 0,-6.50391 2.05078,0 0,-14.16016 -2.08984,0 0,-6.5039 14.33593,0 0,6.5039 -1.73828,0 0,4.14063 6.28906,0 0,-4.14063 -1.75781,0 0,-6.5039 14.31641,0 0,6.5039 -2.05078,0 0,14.16016 2.05078,0 0,6.50391 -14.31641,0 0,-6.50391 1.75781,0 0,-4.45313 -6.28906,0 0,4.45313 1.73828,0 0,6.50391 z" />
      <path
         id="path4244"
         style="stroke:#ffffff;stroke-width:4.30000067;stroke-miterlimit:4;stroke-dasharray:none;stroke-opacity:1"
         d="m 599.85077,255.82024 -15.48828,0 0,-6.50391 2.5,0 0,-14.16016 -2.5,0 0,-6.5039 15.48828,0 0,6.5039 -2.48047,0 0,14.16016 2.48047,0 0,6.50391 z" />
      <path
         id="path4246"
         style="stroke:#ffffff;stroke-width:4.30000067;stroke-miterlimit:4;stroke-dasharray:none;stroke-opacity:1"
         d="m 623.58124,246.46477 -2.77344,0 0,-5.15625 12.14844,0 q 0,4.45312 -0.625,6.62109 -0.60547,2.08984 -2.53906,4.23828 -1.89454,2.12891 -4.58985,3.10547 -2.69531,0.97656 -5.78125,0.97656 -4.58984,0 -8.33984,-1.52343 -3.76953,-1.48438 -5.82031,-4.92188 -2.07032,-3.37891 -2.07032,-7.57812 0,-6.34766 4.17969,-10.23438 4.14063,-3.88672 10.15625,-3.88672 5.01953,0 7.87109,2.44141 l 0,-1.89453 6.54297,0 0,9.49218 -6.54297,0 q -0.85937,-1.75781 -2.24609,-2.65625 -1.36719,-0.89843 -3.20312,-0.89843 -2.57813,0 -3.78907,1.67968 -1.1914,1.67969 -1.1914,6.17188 0,4.47266 1.25,6.07422 1.26953,1.62109 3.6914,1.62109 3.67188,0 3.67188,-3.67187 z" />
      <path
         id="path4248"
         style="stroke:#ffffff;stroke-width:4.30000067;stroke-miterlimit:4;stroke-dasharray:none;stroke-opacity:1"
         d="m 651.08124,255.82024 -14.29688,0 0,-6.50391 2.05078,0 0,-14.16016 -2.08984,0 0,-6.5039 14.33594,0 0,6.5039 -1.73828,0 0,4.14063 6.28906,0 0,-4.14063 -1.75781,0 0,-6.5039 14.3164,0 0,6.5039 -2.05078,0 0,14.16016 2.05078,0 0,6.50391 -14.3164,0 0,-6.50391 1.75781,0 0,-4.45313 -6.28906,0 0,4.45313 1.73828,0 0,6.50391 z" />
      <path
         id="path4250"
         style="stroke:#ffffff;stroke-width:4.30000067;stroke-miterlimit:4;stroke-dasharray:none;stroke-opacity:1"
         d="m 693.67889,235.5468 -2.55859,7.51953 4.86328,0 -2.30469,-7.51953 z m -2.55859,20.27344 -10.76172,0 0,-6.50391 2.07031,0 5.09766,-14.16016 -2.1875,0 0,-6.5039 19.53125,0 0,6.5039 -2.1875,0 5.19531,14.16016 1.99219,0 0,6.50391 -14.17969,0 0,-5.95704 2.38282,0 -1.03516,-3.41796 -6.95313,0 -1.1914,3.41796 2.22656,0 0,5.95704 z" />
      <path
         id="path4252"
         style="stroke:#ffffff;stroke-width:4.30000067;stroke-miterlimit:4;stroke-dasharray:none;stroke-opacity:1"
         d="m 737.66327,255.82024 -25.85938,0 0,-6.50391 2.44141,0 0,-14.16016 -2.44141,0 0,-6.5039 15.52735,0 0,6.5039 -2.57813,0 0,14.16016 6.42578,0 0,-4.35547 6.48438,0 0,10.85938 z" />
      <path
         id="path4254"
         style="stroke:#ffffff;stroke-width:4.30000067;stroke-miterlimit:4;stroke-dasharray:none;stroke-opacity:1"
         d="m 757.95624,255.82024 -15.25391,0 0,-6.50391 2.34375,0 0,-14.16016 -3.125,0 0,4.94141 -5.09765,0 0,-11.44531 26.93359,0 0,11.44531 -5.09766,0 0,-4.94141 -3.10547,0 0,14.16016 2.40235,0 0,6.50391 z" />
      <path
         id="path4256"
         style="stroke:#ffffff;stroke-width:4.30000067;stroke-miterlimit:4;stroke-dasharray:none;stroke-opacity:1"
         d="m 782.19452,255.82024 -15.48828,0 0,-6.50391 2.5,0 0,-14.16016 -2.5,0 0,-6.5039 15.48828,0 0,6.5039 -2.48047,0 0,14.16016 2.48047,0 0,6.50391 z" />
      <path
         id="path4258"
         style="stroke:#ffffff;stroke-width:4.30000067;stroke-miterlimit:4;stroke-dasharray:none;stroke-opacity:1"
         d="m 806.23749,255.82024 -15.25391,0 0,-6.50391 2.34375,0 0,-14.16016 -3.125,0 0,4.94141 -5.09765,0 0,-11.44531 26.93359,0 0,11.44531 -5.09766,0 0,-4.94141 -3.10547,0 0,14.16016 2.40235,0 0,6.50391 z" />
      <path
         id="path4260"
         style="stroke:#ffffff;stroke-width:4.30000067;stroke-miterlimit:4;stroke-dasharray:none;stroke-opacity:1"
         d="m 816.84296,235.15617 -2.08985,0 0,-6.5039 13.90625,0 0,6.5039 -1.28906,0 0,9.16016 q 0,3.28125 0.625,4.47266 0.625,1.17187 2.24609,1.17187 1.34766,0 1.95313,-0.99609 0.60547,-0.97657 0.60547,-4.00391 l 0,-9.80469 -1.36719,0 0,-6.5039 10.21484,0 0,6.5039 -2.14843,0 0,9.84375 q 0,3.76953 -1.09375,6.17188 -1.09375,2.38281 -3.63282,3.73047 -2.53906,1.34765 -6.25,1.34765 -2.98828,0 -5.29296,-0.72265 -2.34375,-0.70313 -3.71094,-2.14844 -1.36719,-1.42578 -2.01172,-3.45703 -0.66406,-1.97266 -0.66406,-6.05469 l 0,-8.71094 z" />
      <path
         id="path4262"
         style="stroke:#ffffff;stroke-width:4.30000067;stroke-miterlimit:4;stroke-dasharray:none;stroke-opacity:1"
         d="m 857.40936,235.15617 0,14.16016 0.9961,0 q 3.71093,0 4.82422,-1.97266 1.09375,-1.97265 1.09375,-4.96093 0,-1.79688 -0.46875,-3.55469 -0.48829,-1.75781 -1.71875,-2.71485 -1.21094,-0.95703 -4.33594,-0.95703 l -0.39063,0 z m 0,20.66407 -12.63672,0 0,-6.50391 2.12891,0 0,-14.16016 -2.12891,0 0,-6.5039 13.00782,0 q 4.45312,0 7.26562,0.54687 2.83203,0.54688 5.33203,2.2461 2.48047,1.71875 3.90625,4.64843 0.70313,1.40625 1.07422,3.00782 0.3711,1.60156 0.3711,3.35937 0,3.53516 -1.50391,6.44531 -1.48438,2.89063 -3.76953,4.4336 -2.22656,1.54297 -4.88281,2.01172 -2.63672,0.46875 -8.16407,0.46875 z" />
      <path
         id="path4264"
         style="stroke:#ffffff;stroke-width:4.30000067;stroke-miterlimit:4;stroke-dasharray:none;stroke-opacity:1"
         d="m 905.45624,255.82024 -25.91797,0 0,-6.50391 2.10937,0 0,-14.16016 -2.14843,0 0,-6.5039 25.95703,0 0,8.6914 -7.12891,0 0,-2.1875 -6.17187,0 0,4.17969 5.37109,0 0,5.52734 -5.37109,0 0,4.45313 6.17187,0 0,-2.1875 7.12891,0 0,8.69141 z" />
    </g>
    <g
       id="g8689"
       transform="matrix(0,-0.76945948,-0.76945948,0,924.08452,781.57749)"
       style="fill:#44aa00;fill-opacity:1;stroke:#ffffff;stroke-width:5.58833933;stroke-miterlimit:4;stroke-dasharray:none;stroke-opacity:1">
      <g
         id="g8691"
         style="fill:#44aa00;fill-opacity:1;stroke:#ffffff;stroke-width:5.58833933;stroke-miterlimit:4;stroke-dasharray:none;stroke-opacity:1">
        <path
           id="path8693"
           d="m 511.60862,348.09874 c 0.1663,9.31318 52.00096,86.29081 51.78024,111.24085 -0.14786,16.71426 -13.0375,24.49139 -10.91746,26.6091 3.18927,3.18577 15.13228,-10.45773 15.20108,-26.81576 0.10997,-26.14607 -47.8174,-107.08981 -47.8174,-107.08981 z"
           style="fill:#44aa00;fill-opacity:1;fill-rule:evenodd;stroke:#ffffff;stroke-width:5.58833933;stroke-linecap:butt;stroke-linejoin:miter;stroke-miterlimit:4;stroke-dasharray:none;stroke-opacity:1" />
        <path
           id="path8695"
           d="m 504.22269,194.08314 c 0,-30.42101 62.77841,-115.671637 62.59346,-142.349099 -0.13529,-19.514754 -12.71199,-23.514853 -10.95667,-26.887565 1.8381,-3.531777 15.20539,8.767042 15.58329,23.384735 0.8069,31.212103 -56.88163,118.183679 -57.83914,139.738629 z"
           style="fill:#44aa00;fill-opacity:1;fill-rule:evenodd;stroke:#ffffff;stroke-width:5.58833933;stroke-linecap:butt;stroke-linejoin:miter;stroke-miterlimit:4;stroke-dasharray:none;stroke-opacity:1" />
        <path
           id="path8697"
           d="m 515.13239,203.5514 -19.05067,-2.05794 0.0588,11.11289 -10.5837,55.74084 22.34337,0.0588 c 0,0 1.48914,-1.17788 1.58756,-3.70429 0.1764,-4.52801 -4.62131,-6.83571 -4.58628,-10.17212 0.013,-1.24028 10.23092,-50.97818 10.23092,-50.97818 z"
           style="fill:#44aa00;fill-opacity:1;fill-rule:evenodd;stroke:#ffffff;stroke-width:5.58833933;stroke-linecap:butt;stroke-linejoin:miter;stroke-miterlimit:4;stroke-dasharray:none;stroke-opacity:1" />
        <path
           id="path8699"
           d="m 507.90019,268.34719 -24.22492,-0.0588 0,7.0558 c 0,0 9.23134,22.69617 9.76053,26.28287 0.52918,3.5867 7.4433,36.87716 9.76053,41.21765 0,0 15.88251,11.17939 18.40388,8.81975 2.43157,-2.2756 -6.65458,-16.31475 -7.1146,-19.69745 L 507.6062,300.62748 496.02293,274.815 Z"
           style="fill:#44aa00;fill-opacity:1;fill-rule:evenodd;stroke:#ffffff;stroke-width:5.58833933;stroke-linecap:butt;stroke-linejoin:miter;stroke-miterlimit:4;stroke-dasharray:none;stroke-opacity:1" />
        <path
           id="path8701"
           d="m 507.7826,268.46479 c 1.35236,7.87898 -4.34473,2.34831 -6.82062,6.11503 -2.2754,3.46171 12.81805,15.93435 12.70044,18.69788 -0.1811,4.25567 -3.64548,5.93863 -3.64548,5.93863 -1.38358,1.04505 -5.2599,1.34704 -6.78386,1.18749 -3.90322,-0.40862 -14.55995,-24.40728 -14.55995,-26.35319 0,-3.88069 4.58628,-5.58583 4.58628,-5.58583 z"
           style="fill:#44aa00;fill-opacity:1;fill-rule:evenodd;stroke:#ffffff;stroke-width:5.58833933;stroke-linecap:butt;stroke-linejoin:miter;stroke-miterlimit:4;stroke-dasharray:none;stroke-opacity:1" />
        <path
           id="path8703"
           d="m 500.4916,334.14256 14.05281,-1.94035"
           style="fill:#44aa00;fill-opacity:1;fill-rule:evenodd;stroke:#ffffff;stroke-width:5.58833933;stroke-linecap:butt;stroke-linejoin:miter;stroke-miterlimit:4;stroke-dasharray:none;stroke-opacity:1" />
        <path
           id="path8705"
           d="m 498.08905,209.38036 12.80563,0 4.49029,-15.96546 c 3.02859,-15.35736 -17.29591,6.81857 -17.29591,6.81857 z"
           style="fill:#44aa00;fill-opacity:1;fill-rule:evenodd;stroke:#ffffff;stroke-width:5.58833933;stroke-linecap:butt;stroke-linejoin:miter;stroke-miterlimit:4;stroke-dasharray:none;stroke-opacity:1" />
      </g>
      <path
         id="path8707"
         d="m 571.44883,47.738434 -3.7561,411.831156"
         style="fill:#44aa00;fill-opacity:1;fill-rule:evenodd;stroke:#ffffff;stroke-width:5.58833933;stroke-linecap:butt;stroke-linejoin:miter;stroke-miterlimit:4;stroke-dasharray:none;stroke-opacity:1" />
      <g
         style="fill:#44aa00;fill-opacity:1;stroke:#ffffff;stroke-width:5.58833933;stroke-miterlimit:4;stroke-dasharray:none;stroke-opacity:1"
         id="g8709">
        <path
           style="fill:#000000;fill-opacity:1;fill-rule:evenodd;stroke:#ffffff;stroke-width:5.58833933;stroke-linecap:butt;stroke-linejoin:miter;stroke-miterlimit:4;stroke-dasharray:none;stroke-opacity:1"
           d="m 511.60862,348.09874 c 0.1663,9.31318 52.00096,86.29081 51.78024,111.24085 -0.14786,16.71426 -13.0375,24.49139 -10.91746,26.6091 3.18927,3.18577 15.13228,-10.45773 15.20108,-26.81576 0.10997,-26.14607 -47.8174,-107.08981 -47.8174,-107.08981 z"
           id="path8711" />
        <path
           style="fill:#000000;fill-opacity:1;fill-rule:evenodd;stroke:#ffffff;stroke-width:5.58833933;stroke-linecap:butt;stroke-linejoin:miter;stroke-miterlimit:4;stroke-dasharray:none;stroke-opacity:1"
           d="m 504.22269,194.08314 c 0,-30.42101 62.77841,-115.671637 62.59346,-142.349099 -0.13529,-19.514754 -12.71199,-23.514853 -10.95667,-26.887565 1.8381,-3.531777 15.20539,8.767042 15.58329,23.384735 0.8069,31.212103 -56.88163,118.183679 -57.83914,139.738629 z"
           id="path8713" />
        <path
           style="fill:#44aa00;fill-opacity:1;fill-rule:evenodd;stroke:#ffffff;stroke-width:5.58833933;stroke-linecap:butt;stroke-linejoin:miter;stroke-miterlimit:4;stroke-dasharray:none;stroke-opacity:1"
           d="m 515.13239,203.5514 -19.05067,-2.05794 0.0588,11.11289 -10.5837,55.74084 22.34337,0.0588 c 0,0 1.48914,-1.17788 1.58756,-3.70429 0.1764,-4.52801 -4.62131,-6.83571 -4.58628,-10.17212 0.013,-1.24028 10.23092,-50.97818 10.23092,-50.97818 z"
           id="path8715" />
        <path
           style="fill:#44aa00;fill-opacity:1;fill-rule:evenodd;stroke:#ffffff;stroke-width:5.58833933;stroke-linecap:butt;stroke-linejoin:miter;stroke-miterlimit:4;stroke-dasharray:none;stroke-opacity:1"
           d="m 507.90019,268.34719 -24.22492,-0.0588 0,7.0558 c 0,0 9.23134,22.69617 9.76053,26.28287 0.52918,3.5867 7.4433,36.87716 9.76053,41.21765 0,0 15.88251,11.17939 18.40388,8.81975 2.43157,-2.2756 -6.65458,-16.31475 -7.1146,-19.69745 L 507.6062,300.62748 496.02293,274.815 Z"
           id="path8717" />
        <path
           style="fill:url(#Packedcircles);fill-opacity:1;fill-rule:evenodd;stroke:#ffffff;stroke-width:5.58833933;stroke-linecap:butt;stroke-linejoin:miter;stroke-miterlimit:4;stroke-dasharray:none;stroke-opacity:1"
           d="m 507.7826,268.46479 c 1.35236,7.87898 -4.34473,2.34831 -6.82062,6.11503 -2.2754,3.46171 12.81805,15.93435 12.70044,18.69788 -0.1811,4.25567 -3.64548,5.93863 -3.64548,5.93863 -1.38358,1.04505 -5.2599,1.34704 -6.78386,1.18749 -3.90322,-0.40862 -14.55995,-24.40728 -14.55995,-26.35319 0,-3.88069 4.58628,-5.58583 4.58628,-5.58583 z"
           id="path8719" />
        <path
           style="fill:#44aa00;fill-opacity:1;fill-rule:evenodd;stroke:#ffffff;stroke-width:5.58833933;stroke-linecap:butt;stroke-linejoin:miter;stroke-miterlimit:4;stroke-dasharray:none;stroke-opacity:1"
           d="m 500.4916,334.14256 14.05281,-1.94035"
           id="path8721" />
        <path
           style="fill:#44aa00;fill-opacity:1;fill-rule:evenodd;stroke:#ffffff;stroke-width:5.58833933;stroke-linecap:butt;stroke-linejoin:miter;stroke-miterlimit:4;stroke-dasharray:none;stroke-opacity:1"
           d="m 498.08905,209.38036 12.80563,0 4.49029,-15.96546 c 3.02859,-15.35736 -17.29591,6.81857 -17.29591,6.81857 z"
           id="path8723" />
      </g>
    </g>
    <g
       id="text7021"
       style="font-style:normal;font-variant:normal;font-weight:800;font-stretch:normal;font-size:64.56250763px;line-height:125%;font-family:'Rockwell Extra Bold';-inkscape-font-specification:'Rockwell Extra Bold, Ultra-Bold';text-align:start;letter-spacing:0px;word-spacing:0px;writing-mode:lr-tb;text-anchor:start;fill:#000000;fill-opacity:1;stroke:none;stroke-width:1px;stroke-linecap:butt;stroke-linejoin:miter;stroke-opacity:1">
      <path
         id="path4227"
         style="font-style:normal;font-variant:normal;font-weight:800;font-stretch:normal;font-size:64.56250763px;line-height:125%;font-family:'Rockwell Extra Bold';-inkscape-font-specification:'Rockwell Extra Bold, Ultra-Bold';text-align:start;writing-mode:lr-tb;text-anchor:start"
         d="m 569.84329,272.63458 -4.12973,12.13699 7.84964,0 -3.71991,-12.13699 z m -4.12973,32.7226 -17.37008,0 0,-10.49771 3.34161,0 8.22794,-22.85538 -3.53077,0 0,-10.49772 31.52467,0 0,10.49772 -3.53077,0 8.38556,22.85538 3.21552,0 0,10.49771 -22.8869,0 0,-9.61502 3.846,0 -1.6708,-5.51682 -11.22278,0 -1.92301,5.51682 3.59381,0 0,9.61502 z" />
      <path
         id="path4229"
         style="font-style:normal;font-variant:normal;font-weight:800;font-stretch:normal;font-size:64.56250763px;line-height:125%;font-family:'Rockwell Extra Bold';-inkscape-font-specification:'Rockwell Extra Bold, Ultra-Bold';text-align:start;writing-mode:lr-tb;text-anchor:start"
         d="m 620.15666,271.12139 0,8.35404 1.89148,0 q 3.71991,0 5.04394,-0.22067 1.41861,-0.22067 2.39588,-1.26099 0.97726,-0.97726 0.97726,-2.6796 0,-1.70233 -0.97726,-2.71112 -0.97727,-1.04031 -2.49045,-1.26098 -1.45014,-0.22068 -5.29614,-0.22068 l -1.54471,0 z m 3.31009,34.23579 -23.83265,0 0,-10.49771 3.56229,0 0,-22.85538 -3.56229,0 0,-10.49772 23.83265,0 q 3.21551,0 5.95816,0.1261 2.74264,0.0946 4.69717,0.31525 1.95453,0.18915 3.59381,0.53592 4.6026,0.97726 7.47135,4.25583 2.90027,3.34161 2.90027,7.88116 0,3.40467 -1.76538,6.17884 -1.76538,2.74264 -4.63413,4.03515 l 6.05274,10.02485 3.15246,0 0,10.49771 -15.79385,0 -9.55198,-17.90601 -5.39071,0 0,7.4083 3.31009,0 0,10.49771 z" />
      <path
         id="path4231"
         style="font-style:normal;font-variant:normal;font-weight:800;font-stretch:normal;font-size:64.56250763px;line-height:125%;font-family:'Rockwell Extra Bold';-inkscape-font-specification:'Rockwell Extra Bold, Ultra-Bold';text-align:start;writing-mode:lr-tb;text-anchor:start"
         d="m 689.57396,286.03256 11.38041,4.00363 q -1.45014,7.03 -6.65171,11.5065 -5.26462,4.50803 -14.50134,4.50803 -12.60987,0 -18.6626,-6.58865 -6.08426,-6.55713 -6.08426,-16.01453 0,-9.52045 5.95816,-16.17215 5.95816,-6.65171 15.47861,-6.65171 7.72354,0 12.57834,3.81449 l 0,-2.9318 10.52924,0 0,16.01453 -10.93906,0 q -0.85117,-2.99484 -2.86875,-4.7287 -2.01757,-1.70233 -4.6026,-1.70233 -7.12457,0 -7.12457,12.26309 0,12.29462 7.37677,12.29462 6.46256,0 8.13336,-9.61502 z" />
      <path
         id="path4233"
         style="font-style:normal;font-variant:normal;font-weight:800;font-stretch:normal;font-size:64.56250763px;line-height:125%;font-family:'Rockwell Extra Bold';-inkscape-font-specification:'Rockwell Extra Bold, Ultra-Bold';text-align:start;writing-mode:lr-tb;text-anchor:start"
         d="m 729.57877,305.35718 -23.07605,0 0,-10.49771 3.31009,0 0,-22.85538 -3.37314,0 0,-10.49772 23.1391,0 0,10.49772 -2.8057,0 0,6.68322 10.15095,0 0,-6.68322 -2.83722,0 0,-10.49772 23.10757,0 0,10.49772 -3.31009,0 0,22.85538 3.31009,0 0,10.49771 -23.10757,0 0,-10.49771 2.83722,0 0,-7.18763 -10.15095,0 0,7.18763 2.8057,0 0,10.49771 z" />
      <path
         id="path4235"
         style="font-style:normal;font-variant:normal;font-weight:800;font-stretch:normal;font-size:64.56250763px;line-height:125%;font-family:'Rockwell Extra Bold';-inkscape-font-specification:'Rockwell Extra Bold, Ultra-Bold';text-align:start;writing-mode:lr-tb;text-anchor:start"
         d="m 804.73356,305.35718 -41.83323,0 0,-10.49771 3.40466,0 0,-22.85538 -3.46771,0 0,-10.49772 41.89628,0 0,14.02848 -11.50651,0 0,-3.53076 -9.96179,0 0,6.74627 8.66928,0 0,8.92148 -8.66928,0 0,7.18763 9.96179,0 0,-3.53077 11.50651,0 0,14.02848 z" />
      <path
         id="path4237"
         style="font-style:normal;font-variant:normal;font-weight:800;font-stretch:normal;font-size:64.56250763px;line-height:125%;font-family:'Rockwell Extra Bold';-inkscape-font-specification:'Rockwell Extra Bold, Ultra-Bold';text-align:start;writing-mode:lr-tb;text-anchor:start"
         d="m 831.75019,271.12139 0,8.35404 1.89148,0 q 3.71991,0 5.04394,-0.22067 1.41861,-0.22067 2.39588,-1.26099 0.97726,-0.97726 0.97726,-2.6796 0,-1.70233 -0.97726,-2.71112 -0.97727,-1.04031 -2.49045,-1.26098 -1.45014,-0.22068 -5.29615,-0.22068 l -1.5447,0 z m 3.31009,34.23579 -23.83265,0 0,-10.49771 3.56229,0 0,-22.85538 -3.56229,0 0,-10.49772 23.83265,0 q 3.21551,0 5.95816,0.1261 2.74264,0.0946 4.69717,0.31525 1.95453,0.18915 3.59381,0.53592 4.6026,0.97726 7.47135,4.25583 2.90027,3.34161 2.90027,7.88116 0,3.40467 -1.76538,6.17884 -1.76539,2.74264 -4.63413,4.03515 l 6.05274,10.02485 3.15246,0 0,10.49771 -15.79385,0 -9.55198,-17.90601 -5.39071,0 0,7.4083 3.31009,0 0,10.49771 z" />
      <path
         id="path4239"
         style="font-style:normal;font-variant:normal;font-weight:800;font-stretch:normal;font-size:64.56250763px;line-height:125%;font-family:'Rockwell Extra Bold';-inkscape-font-specification:'Rockwell Extra Bold, Ultra-Bold';text-align:start;writing-mode:lr-tb;text-anchor:start"
         d="m 896.59641,305.35718 -23.95874,0 0,-10.49771 3.53076,0 0,-6.96695 -11.06516,-15.88843 -2.99484,0 0,-10.49772 22.91843,0 0,10.49772 -2.61655,0 4.66565,8.953 5.64292,-8.953 -2.6796,0 0,-10.49772 16.86569,0 0,10.49772 -2.74264,0 -11.03363,15.88843 0,6.96695 3.46771,0 0,10.49771 z" />
    </g>
    <g
       style="font-style:normal;font-variant:normal;font-weight:800;font-stretch:normal;font-size:29.40316582px;line-height:125%;font-family:'Rockwell Extra Bold';-inkscape-font-specification:'Rockwell Extra Bold, Ultra-Bold';text-align:start;letter-spacing:0px;word-spacing:0px;writing-mode:lr-tb;text-anchor:start;fill:#44aa00;fill-opacity:1;stroke:#ffffff;stroke-width:4.30000067;stroke-linecap:butt;stroke-linejoin:miter;stroke-miterlimit:4;stroke-dasharray:none;stroke-opacity:1"
       id="text7025">
      <path
         d="m 566.51695,332.41327 -19.00868,0 0,-4.78089 1.79462,0 0,-10.40883 -1.79462,0 0,-4.78089 11.41382,0 0,4.78089 -1.89512,0 0,10.40883 4.72346,0 0,-3.20161 4.76652,0 0,7.9825 z"
         style="stroke:#ffffff;stroke-width:4.30000067;stroke-miterlimit:4;stroke-dasharray:none;stroke-opacity:1"
         id="path4274" />
      <path
         d="m 575.53316,325.40705 q 0,3.33082 2.38326,3.33082 2.52684,0 2.52684,-3.35954 0,-1.5362 -0.61735,-2.38326 -0.63171,-0.84707 -1.78027,-0.84707 -1.13421,0 -1.82334,0.83271 -0.68914,0.83271 -0.68914,2.42634 z m -7.30772,-0.0287 q 0,-3.0724 2.58426,-5.18288 2.58427,-2.11048 6.97751,-2.11048 4.42196,0 7.19287,2.03869 2.7709,2.0387 2.7709,5.3121 0,3.15854 -2.64169,5.26902 -2.64169,2.11049 -6.97751,2.11049 -4.68039,0 -7.29336,-2.11049 -2.61298,-2.09612 -2.61298,-5.32645 z"
         style="stroke:#ffffff;stroke-width:4.30000067;stroke-miterlimit:4;stroke-dasharray:none;stroke-opacity:1"
         id="path4276" />
      <path
         d="m 601.04557,332.41327 -11.02618,0 0,-4.37889 1.79462,0 0,-5.16853 -1.79462,0 0,-4.37889 9.0162,0 0,1.76592 q 2.65605,-2.02434 5.69974,-2.02434 2.6704,0 4.01996,1.47877 1.3352,1.47877 1.3352,4.75217 l 0,3.5749 1.65106,0 0,4.37889 -8.87263,0 0,-6.18787 q 0,-2.02434 -0.34457,-2.67041 -0.37329,-0.63171 -1.42135,-0.63171 -0.96192,0 -2.06741,0.73221 l 0,4.37889 2.00998,0 0,4.37889 z"
         style="stroke:#ffffff;stroke-width:4.30000067;stroke-miterlimit:4;stroke-dasharray:none;stroke-opacity:1"
         id="path4278" />
      <path
         d="m 621.13104,325.53626 q 0,1.27777 0.64606,2.12484 0.64607,0.86142 1.8377,0.86142 1.26342,0 1.88077,-0.87578 0.61735,-0.84706 0.61735,-2.13919 0,-1.40699 -0.66042,-2.28277 -0.67478,-0.89014 -1.80899,-0.89014 -1.22034,0 -1.86641,0.93321 -0.64606,0.91885 -0.64606,2.26841 z m -6.10174,12.03118 1.98127,-3.53183 q 1.67977,0.7035 4.50811,0.7035 1.86641,0 2.91447,-0.53121 1.06242,-0.51686 1.36392,-1.22035 0.28714,-0.70349 0.28714,-1.99563 -2.16791,1.09114 -4.83832,1.09114 -3.11547,0 -5.25467,-1.78027 -2.1679,-1.76591 -2.1679,-4.89574 0,-3.30212 2.25405,-5.24031 2.23969,-1.9382 5.42695,-1.9382 2.61298,0 4.57989,1.14856 l 0,-0.89014 8.93006,0 0,4.37889 -1.7372,0 0,7.63794 q 0,2.55554 -0.45942,3.93382 -0.47379,1.37827 -1.69413,2.35455 -1.22035,1.01935 -3.05805,1.46441 -1.82334,0.47379 -4.83831,0.47379 -1.34956,0 -2.41198,-0.0862 -1.04806,-0.0861 -2.41198,-0.28714 -2.32583,-0.37328 -3.3739,-0.78963 z"
         style="stroke:#ffffff;stroke-width:4.30000067;stroke-miterlimit:4;stroke-dasharray:none;stroke-opacity:1"
         id="path4280" />
      <path
         d="m 648.07916,332.41327 -10.91133,0 0,-4.37889 1.72284,0 0,-5.16853 -1.75156,0 0,-4.37889 8.98749,0 0,1.90949 q 1.03371,-0.87578 2.71348,-1.52185 1.66541,-0.64606 3.18726,-0.64606 3.54618,0 4.75217,2.72783 3.20161,-2.72783 6.53244,-2.72783 1.82334,0 3.00062,0.77528 1.20598,0.78963 1.69412,2.09612 0.5025,1.34956 0.5025,3.79025 l 0,3.14419 1.8377,0 0,4.37889 -9.05928,0 0,-5.98688 q 0,-2.34019 -0.35893,-2.91447 -0.35892,-0.57428 -1.29213,-0.57428 -1.17727,0 -2.3689,0.89013 l 0,4.20661 1.96691,0 0,4.37889 -9.18849,0 0,-5.95816 q 0,-2.29712 -0.31586,-2.91448 -0.31585,-0.60299 -1.27777,-0.60299 -1.10549,0 -2.32584,0.89013 l 0,4.20661 1.95256,0 0,4.37889 z"
         style="stroke:#ffffff;stroke-width:4.30000067;stroke-miterlimit:4;stroke-dasharray:none;stroke-opacity:1"
         id="path4282" />
      <path
         d="m 679.70766,325.40705 q 0,3.33082 2.38326,3.33082 2.52684,0 2.52684,-3.35954 0,-1.5362 -0.61735,-2.38326 -0.63171,-0.84707 -1.78027,-0.84707 -1.13421,0 -1.82335,0.83271 -0.68913,0.83271 -0.68913,2.42634 z m -7.30772,-0.0287 q 0,-3.0724 2.58426,-5.18288 2.58426,-2.11048 6.97751,-2.11048 4.42196,0 7.19286,2.03869 2.77091,2.0387 2.77091,5.3121 0,3.15854 -2.64169,5.26902 -2.64169,2.11049 -6.97751,2.11049 -4.68039,0 -7.29337,-2.11049 -2.61297,-2.09612 -2.61297,-5.32645 z"
         style="stroke:#ffffff;stroke-width:4.30000067;stroke-miterlimit:4;stroke-dasharray:none;stroke-opacity:1"
         id="path4284" />
      <path
         d="m 705.22007,332.41327 -11.02619,0 0,-4.37889 1.79463,0 0,-5.16853 -1.79463,0 0,-4.37889 9.0162,0 0,1.76592 q 2.65605,-2.02434 5.69974,-2.02434 2.6704,0 4.01996,1.47877 1.33521,1.47877 1.33521,4.75217 l 0,3.5749 1.65105,0 0,4.37889 -8.87263,0 0,-6.18787 q 0,-2.02434 -0.34457,-2.67041 -0.37328,-0.63171 -1.42135,-0.63171 -0.96192,0 -2.06741,0.73221 l 0,4.37889 2.00999,0 0,4.37889 z"
         style="stroke:#ffffff;stroke-width:4.30000067;stroke-miterlimit:4;stroke-dasharray:none;stroke-opacity:1"
         id="path4286" />
      <path
         d="m 729.11014,327.33089 0,4.27839 q -0.7035,0.47378 -2.0387,0.8327 -1.40699,0.37329 -2.69912,0.37329 -1.62234,0 -2.78526,-0.53121 -1.19163,-0.54557 -1.79463,-1.46442 -0.33021,-0.53121 -0.48813,-0.96192 -0.15793,-0.44507 -0.22972,-0.99063 -0.1005,-0.94757 -0.1005,-3.66104 l 0,-2.3402 -1.78027,0 0,-4.37889 1.78027,0 0,-2.13919 7.22158,-3.43133 0,5.57052 2.91448,0 0,4.37889 -2.91448,0 0,2.69912 q 0,1.32085 0.24407,1.76592 0.22971,0.44506 0.97628,0.44506 0.70349,0 1.69413,-0.44506 z"
         style="stroke:#ffffff;stroke-width:4.30000067;stroke-miterlimit:4;stroke-dasharray:none;stroke-opacity:1"
         id="path4288" />
      <path
         d="m 732.46969,338.19915 0,-2.79962 q 1.14856,0 1.75156,-0.34457 0.60299,-0.35893 0.74656,-0.81835 0.15793,-0.47378 0.17228,-1.82334 l -2.6704,0 0,-5.22595 7.16415,0 0,4.46503 q 0,2.41198 -0.17228,3.28775 -0.17229,0.9045 -1.00499,1.75156 -0.81835,0.86142 -2.02434,1.19163 -1.16292,0.31586 -3.96254,0.31586 z"
         style="stroke:#ffffff;stroke-width:4.30000067;stroke-miterlimit:4;stroke-dasharray:none;stroke-opacity:1"
         id="path4290" />
      <path
         d="m 763.06448,323.61242 5.18289,1.82334 q -0.66043,3.20161 -3.02933,5.24031 -2.39762,2.05305 -6.60423,2.05305 -5.74281,0 -8.49935,-3.00061 -2.77091,-2.98626 -2.77091,-7.29337 0,-4.33581 2.71348,-7.36514 2.71348,-3.02933 7.04929,-3.02933 3.51747,0 5.72845,1.73719 l 0,-1.3352 4.79525,0 0,7.29337 -4.98189,0 q -0.38764,-1.36392 -1.30649,-2.15356 -0.91885,-0.77528 -2.09612,-0.77528 -3.24469,0 -3.24469,5.58488 0,5.59924 3.35954,5.59924 2.94319,0 3.70411,-4.37889 z"
         style="stroke:#ffffff;stroke-width:4.30000067;stroke-miterlimit:4;stroke-dasharray:none;stroke-opacity:1"
         id="path4292" />
      <path
         d="m 778.02449,325.40705 q 0,3.33082 2.38327,3.33082 2.52683,0 2.52683,-3.35954 0,-1.5362 -0.61735,-2.38326 -0.63171,-0.84707 -1.78027,-0.84707 -1.13421,0 -1.82334,0.83271 -0.68914,0.83271 -0.68914,2.42634 z m -7.30772,-0.0287 q 0,-3.0724 2.58426,-5.18288 2.58427,-2.11048 6.97751,-2.11048 4.42196,0 7.19287,2.03869 2.7709,2.0387 2.7709,5.3121 0,3.15854 -2.64169,5.26902 -2.64169,2.11049 -6.97751,2.11049 -4.68039,0 -7.29336,-2.11049 -2.61298,-2.09612 -2.61298,-5.32645 z"
         style="stroke:#ffffff;stroke-width:4.30000067;stroke-miterlimit:4;stroke-dasharray:none;stroke-opacity:1"
         id="path4294" />
      <path
         d="m 802.46012,332.41327 -9.97812,0 0,-4.37889 1.47877,0 0,-11.21283 -1.47877,0 0,-4.37889 8.70035,0 0,15.59172 1.27777,0 0,4.37889 z"
         style="stroke:#ffffff;stroke-width:4.30000067;stroke-miterlimit:4;stroke-dasharray:none;stroke-opacity:1"
         id="path4296" />
      <path
         d="m 812.02191,325.40705 q 0,3.33082 2.38327,3.33082 2.52683,0 2.52683,-3.35954 0,-1.5362 -0.61735,-2.38326 -0.63171,-0.84707 -1.78027,-0.84707 -1.1342,0 -1.82334,0.83271 -0.68914,0.83271 -0.68914,2.42634 z m -7.30772,-0.0287 q 0,-3.0724 2.58427,-5.18288 2.58426,-2.11048 6.9775,-2.11048 4.42196,0 7.19287,2.03869 2.7709,2.0387 2.7709,5.3121 0,3.15854 -2.64169,5.26902 -2.64169,2.11049 -6.97751,2.11049 -4.68038,0 -7.29336,-2.11049 -2.61298,-2.09612 -2.61298,-5.32645 z"
         style="stroke:#ffffff;stroke-width:4.30000067;stroke-miterlimit:4;stroke-dasharray:none;stroke-opacity:1"
         id="path4298" />
      <path
         d="m 837.67789,332.41327 -11.22718,0 0,-4.37889 1.89512,0 0,-5.16853 -1.89512,0 0,-4.37889 8.64292,0 0,3.48876 q 0.48814,-1.30649 1.50749,-2.25405 0.97627,-0.93321 1.98126,-1.22035 0.96192,-0.27278 2.82834,-0.27278 l 0,6.13044 q -0.24407,-0.0143 -0.603,-0.0143 -2.21098,0 -3.28776,0.44506 -1.11984,0.45943 -1.52184,1.20599 -0.41635,0.77528 -0.43071,2.0387 l 2.11048,0 0,4.37889 z"
         style="stroke:#ffffff;stroke-width:4.30000067;stroke-miterlimit:4;stroke-dasharray:none;stroke-opacity:1"
         id="path4300" />
      <path
         d="m 853.64288,328.85273 0,-2.54119 q -0.96192,-0.51685 -2.03869,-0.51685 -0.94757,0 -1.50749,0.51685 -0.55992,0.53121 -0.55992,1.34956 0,0.84706 0.57428,1.37827 0.58863,0.54557 1.34956,0.54557 1.34956,0 2.18226,-0.73221 z m -5.41259,-6.47501 -5.65667,-0.57428 q 0.93321,-2.05306 3.01498,-2.88576 2.05305,-0.83271 6.05866,-0.83271 1.47877,0 2.64169,0.1005 1.17727,0.0861 2.09612,0.27278 1.90948,0.35893 2.82833,1.10549 0.91885,0.76092 1.27778,1.6367 0.37328,0.90449 0.37328,2.81398 l 0,4.01996 1.78027,0 0,4.37889 -9.00185,0 0,-0.94756 q -1.86641,1.20599 -4.99624,1.20599 -2.94319,0 -4.43632,-1.29214 -1.50748,-1.29213 -1.50748,-3.05804 0,-1.95255 1.85205,-3.20161 1.8377,-1.24906 4.79524,-1.24906 2.69912,0 4.29275,0.70349 l 0,-0.41635 q 0,-1.29214 -0.18664,-1.80899 -0.201,-0.54556 -0.89013,-0.9332 -0.71785,-0.37329 -1.66542,-0.37329 -1.7372,0 -2.6704,1.33521 z"
         style="stroke:#ffffff;stroke-width:4.30000067;stroke-miterlimit:4;stroke-dasharray:none;stroke-opacity:1"
         id="path4302" />
      <path
         d="m 876.95866,325.39269 q 0,-1.30649 -0.60299,-2.18227 -0.603,-0.86142 -1.79463,-0.86142 -2.45505,0 -2.45505,3.1729 0,1.30649 0.603,2.15355 0.58863,0.86143 1.79462,0.86143 1.09114,0 1.78027,-0.76093 0.67478,-0.76092 0.67478,-2.38326 z m 8.98749,2.64169 0,4.37889 -9.03056,0 0,-0.93321 q -2.00998,1.19164 -4.65167,1.19164 -2.94319,0 -5.2116,-1.79463 -2.26841,-1.79463 -2.26841,-5.13981 0,-3.60361 2.09613,-5.57052 2.09612,-1.9382 5.61359,-1.9382 2.58426,0 4.42196,1.14856 l 0,-2.55555 -1.78027,0 0,-4.37889 9.00185,0 0,15.59172 1.80898,0 z"
         style="stroke:#ffffff;stroke-width:4.30000067;stroke-miterlimit:4;stroke-dasharray:none;stroke-opacity:1"
         id="path4304" />
      <path
         d="m 895.52231,325.40705 q 0,3.33082 2.38326,3.33082 2.52684,0 2.52684,-3.35954 0,-1.5362 -0.61735,-2.38326 -0.63171,-0.84707 -1.78027,-0.84707 -1.13421,0 -1.82334,0.83271 -0.68914,0.83271 -0.68914,2.42634 z m -7.30772,-0.0287 q 0,-3.0724 2.58426,-5.18288 2.58426,-2.11048 6.97751,-2.11048 4.42196,0 7.19287,2.03869 2.7709,2.0387 2.7709,5.3121 0,3.15854 -2.64169,5.26902 -2.64169,2.11049 -6.97751,2.11049 -4.68039,0 -7.29336,-2.11049 -2.61298,-2.09612 -2.61298,-5.32645 z"
         style="stroke:#ffffff;stroke-width:4.30000067;stroke-miterlimit:4;stroke-dasharray:none;stroke-opacity:1"
         id="path4306" />
    </g>
    <g
       id="text7063"
       style="font-style:normal;font-variant:normal;font-weight:800;font-stretch:normal;font-size:40px;line-height:125%;font-family:'Rockwell Extra Bold';-inkscape-font-specification:'Rockwell Extra Bold, Ultra-Bold';text-align:start;letter-spacing:0px;word-spacing:0px;writing-mode:lr-tb;text-anchor:start;fill:#000000;fill-opacity:1;stroke:#ffffff;stroke-width:2.00000024;stroke-linecap:butt;stroke-linejoin:miter;stroke-miterlimit:4;stroke-dasharray:none;stroke-opacity:1">
      <path
         id="path4202"
         style="stroke:#ffffff;stroke-width:2.00000024;stroke-miterlimit:4;stroke-dasharray:none;stroke-opacity:1"
         d="m 564.12811,255.82024 -14.29687,0 0,-6.50391 2.05078,0 0,-14.16016 -2.08984,0 0,-6.5039 14.33593,0 0,6.5039 -1.73828,0 0,4.14063 6.28906,0 0,-4.14063 -1.75781,0 0,-6.5039 14.31641,0 0,6.5039 -2.05078,0 0,14.16016 2.05078,0 0,6.50391 -14.31641,0 0,-6.50391 1.75781,0 0,-4.45313 -6.28906,0 0,4.45313 1.73828,0 0,6.50391 z" />
      <path
         id="path4204"
         style="stroke:#ffffff;stroke-width:2.00000024;stroke-miterlimit:4;stroke-dasharray:none;stroke-opacity:1"
         d="m 599.85077,255.82024 -15.48828,0 0,-6.50391 2.5,0 0,-14.16016 -2.5,0 0,-6.5039 15.48828,0 0,6.5039 -2.48047,0 0,14.16016 2.48047,0 0,6.50391 z" />
      <path
         id="path4206"
         style="stroke:#ffffff;stroke-width:2.00000024;stroke-miterlimit:4;stroke-dasharray:none;stroke-opacity:1"
         d="m 623.58124,246.46477 -2.77344,0 0,-5.15625 12.14844,0 q 0,4.45312 -0.625,6.62109 -0.60547,2.08984 -2.53906,4.23828 -1.89454,2.12891 -4.58985,3.10547 -2.69531,0.97656 -5.78125,0.97656 -4.58984,0 -8.33984,-1.52343 -3.76953,-1.48438 -5.82031,-4.92188 -2.07032,-3.37891 -2.07032,-7.57812 0,-6.34766 4.17969,-10.23438 4.14063,-3.88672 10.15625,-3.88672 5.01953,0 7.87109,2.44141 l 0,-1.89453 6.54297,0 0,9.49218 -6.54297,0 q -0.85937,-1.75781 -2.24609,-2.65625 -1.36719,-0.89843 -3.20312,-0.89843 -2.57813,0 -3.78907,1.67968 -1.1914,1.67969 -1.1914,6.17188 0,4.47266 1.25,6.07422 1.26953,1.62109 3.6914,1.62109 3.67188,0 3.67188,-3.67187 z" />
      <path
         id="path4208"
         style="stroke:#ffffff;stroke-width:2.00000024;stroke-miterlimit:4;stroke-dasharray:none;stroke-opacity:1"
         d="m 651.08124,255.82024 -14.29688,0 0,-6.50391 2.05078,0 0,-14.16016 -2.08984,0 0,-6.5039 14.33594,0 0,6.5039 -1.73828,0 0,4.14063 6.28906,0 0,-4.14063 -1.75781,0 0,-6.5039 14.3164,0 0,6.5039 -2.05078,0 0,14.16016 2.05078,0 0,6.50391 -14.3164,0 0,-6.50391 1.75781,0 0,-4.45313 -6.28906,0 0,4.45313 1.73828,0 0,6.50391 z" />
      <path
         id="path4210"
         style="stroke:#ffffff;stroke-width:2;stroke-miterlimit:4;stroke-dasharray:none;stroke-opacity:1"
         d="m 693.45365,237.23607 -2.33335,5.83026 4.86328,0 z m -2.33335,18.58417 -10.76172,0 0,-6.50391 2.07031,0 5.09766,-14.16016 -2.1875,0 0,-6.5039 19.53125,0 0,6.5039 -2.1875,0 5.19531,14.16016 1.99219,0 0,6.50391 -14.17969,0 0,-5.95704 2.38282,0 -1.03516,-3.41796 -6.95313,0 -1.1914,3.41796 2.22656,0 z"
        />
      <path
         id="path4212"
         style="stroke:#ffffff;stroke-width:2.00000024;stroke-miterlimit:4;stroke-dasharray:none;stroke-opacity:1"
         d="m 737.66327,255.82024 -25.85938,0 0,-6.50391 2.44141,0 0,-14.16016 -2.44141,0 0,-6.5039 15.52735,0 0,6.5039 -2.57813,0 0,14.16016 6.42578,0 0,-4.35547 6.48438,0 0,10.85938 z" />
      <path
         id="path4214"
         style="stroke:#ffffff;stroke-width:2.00000024;stroke-miterlimit:4;stroke-dasharray:none;stroke-opacity:1"
         d="m 757.95624,255.82024 -15.25391,0 0,-6.50391 2.34375,0 0,-14.16016 -3.125,0 0,4.94141 -5.09765,0 0,-11.44531 26.93359,0 0,11.44531 -5.09766,0 0,-4.94141 -3.10547,0 0,14.16016 2.40235,0 0,6.50391 z" />
      <path
         id="path4216"
         style="stroke:#ffffff;stroke-width:2.00000024;stroke-miterlimit:4;stroke-dasharray:none;stroke-opacity:1"
         d="m 782.19452,255.82024 -15.48828,0 0,-6.50391 2.5,0 0,-14.16016 -2.5,0 0,-6.5039 15.48828,0 0,6.5039 -2.48047,0 0,14.16016 2.48047,0 0,6.50391 z" />
      <path
         id="path4218"
         style="stroke:#ffffff;stroke-width:2.00000024;stroke-miterlimit:4;stroke-dasharray:none;stroke-opacity:1"
         d="m 806.23749,255.82024 -15.25391,0 0,-6.50391 2.34375,0 0,-14.16016 -3.125,0 0,4.94141 -5.09765,0 0,-11.44531 26.93359,0 0,11.44531 -5.09766,0 0,-4.94141 -3.10547,0 0,14.16016 2.40235,0 0,6.50391 z" />
      <path
         id="path4220"
         style="stroke:#ffffff;stroke-width:2.00000024;stroke-miterlimit:4;stroke-dasharray:none;stroke-opacity:1"
         d="m 816.84296,235.15617 -2.08985,0 0,-6.5039 13.90625,0 0,6.5039 -1.28906,0 0,9.16016 q 0,3.28125 0.625,4.47266 0.625,1.17187 2.24609,1.17187 1.34766,0 1.95313,-0.99609 0.60547,-0.97657 0.60547,-4.00391 l 0,-9.80469 -1.36719,0 0,-6.5039 10.21484,0 0,6.5039 -2.14843,0 0,9.84375 q 0,3.76953 -1.09375,6.17188 -1.09375,2.38281 -3.63282,3.73047 -2.53906,1.34765 -6.25,1.34765 -2.98828,0 -5.29296,-0.72265 -2.34375,-0.70313 -3.71094,-2.14844 -1.36719,-1.42578 -2.01172,-3.45703 -0.66406,-1.97266 -0.66406,-6.05469 l 0,-8.71094 z" />
      <path
         id="path4222"
         style="stroke:#ffffff;stroke-width:2.00000024;stroke-miterlimit:4;stroke-dasharray:none;stroke-opacity:1"
         d="m 857.40936,235.15617 0,14.16016 0.9961,0 q 3.71093,0 4.82422,-1.97266 1.09375,-1.97265 1.09375,-4.96093 0,-1.79688 -0.46875,-3.55469 -0.48829,-1.75781 -1.71875,-2.71485 -1.21094,-0.95703 -4.33594,-0.95703 l -0.39063,0 z m 0,20.66407 -12.63672,0 0,-6.50391 2.12891,0 0,-14.16016 -2.12891,0 0,-6.5039 13.00782,0 q 4.45312,0 7.26562,0.54687 2.83203,0.54688 5.33203,2.2461 2.48047,1.71875 3.90625,4.64843 0.70313,1.40625 1.07422,3.00782 0.3711,1.60156 0.3711,3.35937 0,3.53516 -1.50391,6.44531 -1.48438,2.89063 -3.76953,4.4336 -2.22656,1.54297 -4.88281,2.01172 -2.63672,0.46875 -8.16407,0.46875 z" />
      <path
         id="path4224"
         style="stroke:#ffffff;stroke-width:2.00000024;stroke-miterlimit:4;stroke-dasharray:none;stroke-opacity:1"
         d="m 905.45624,255.82024 -25.91797,0 0,-6.50391 2.10937,0 0,-14.16016 -2.14843,0 0,-6.5039 25.95703,0 0,8.6914 -7.12891,0 0,-2.1875 -6.17187,0 0,4.17969 5.37109,0 0,5.52734 -5.37109,0 0,4.45313 6.17187,0 0,-2.1875 7.12891,0 0,8.69141 z" />
    </g>
    <g
       style="fill:#44aa00;fill-opacity:1"
       transform="matrix(0,-0.76945948,-0.76945948,0,924.08452,781.57749)"
       id="g6956">
      <g
         style="fill:#44aa00;fill-opacity:1;stroke:#000000;stroke-width:2.00000024;stroke-miterlimit:4;stroke-dasharray:none;stroke-opacity:1"
         id="g6940">
        <path
           style="fill:#44aa00;fill-opacity:1;fill-rule:evenodd;stroke:#000000;stroke-width:2.00000024;stroke-linecap:butt;stroke-linejoin:miter;stroke-miterlimit:4;stroke-dasharray:none;stroke-opacity:1"
           d="m 511.60862,348.09874 c 0.1663,9.31318 52.00096,86.29081 51.78024,111.24085 -0.14786,16.71426 -13.0375,24.49139 -10.91746,26.6091 3.18927,3.18577 15.13228,-10.45773 15.20108,-26.81576 0.10997,-26.14607 -47.8174,-107.08981 -47.8174,-107.08981 z"
           id="path6942" />
        <path
           style="fill:#44aa00;fill-opacity:1;fill-rule:evenodd;stroke:#000000;stroke-width:2.00000024;stroke-linecap:butt;stroke-linejoin:miter;stroke-miterlimit:4;stroke-dasharray:none;stroke-opacity:1"
           d="m 504.22269,194.08314 c 0,-30.42101 62.77841,-115.671637 62.59346,-142.349099 -0.13529,-19.514754 -12.71199,-23.514853 -10.95667,-26.887565 1.8381,-3.531777 15.20539,8.767042 15.58329,23.384735 0.8069,31.212103 -56.88163,118.183679 -57.83914,139.738629 z"
           id="path6944" />
        <path
           style="fill:#44aa00;fill-opacity:1;fill-rule:evenodd;stroke:#000000;stroke-width:2.00000024;stroke-linecap:butt;stroke-linejoin:miter;stroke-miterlimit:4;stroke-dasharray:none;stroke-opacity:1"
           d="m 515.13239,203.5514 -19.05067,-2.05794 0.0588,11.11289 -10.5837,55.74084 22.34337,0.0588 c 0,0 1.48914,-1.17788 1.58756,-3.70429 0.1764,-4.52801 -4.62131,-6.83571 -4.58628,-10.17212 0.013,-1.24028 10.23092,-50.97818 10.23092,-50.97818 z"
           id="path6946" />
        <path
           style="fill:#44aa00;fill-opacity:1;fill-rule:evenodd;stroke:#000000;stroke-width:2.00000024;stroke-linecap:butt;stroke-linejoin:miter;stroke-miterlimit:4;stroke-dasharray:none;stroke-opacity:1"
           d="m 507.90019,268.34719 -24.22492,-0.0588 0,7.0558 c 0,0 9.23134,22.69617 9.76053,26.28287 0.52918,3.5867 7.4433,36.87716 9.76053,41.21765 0,0 15.88251,11.17939 18.40388,8.81975 2.43157,-2.2756 -6.65458,-16.31475 -7.1146,-19.69745 L 507.6062,300.62748 496.02293,274.815 Z"
           id="path6948" />
        <path
           style="fill:#44aa00;fill-opacity:1;fill-rule:evenodd;stroke:#000000;stroke-width:2.00000024;stroke-linecap:butt;stroke-linejoin:miter;stroke-miterlimit:4;stroke-dasharray:none;stroke-opacity:1"
           d="m 507.7826,268.46479 c 1.35236,7.87898 -4.34473,2.34831 -6.82062,6.11503 -2.2754,3.46171 12.81805,15.93435 12.70044,18.69788 -0.1811,4.25567 -3.64548,5.93863 -3.64548,5.93863 -1.38358,1.04505 -5.2599,1.34704 -6.78386,1.18749 -3.90322,-0.40862 -14.55995,-24.40728 -14.55995,-26.35319 0,-3.88069 4.58628,-5.58583 4.58628,-5.58583 z"
           id="path6950" />
        <path
           style="fill:#44aa00;fill-opacity:1;fill-rule:evenodd;stroke:#000000;stroke-width:2.00000024;stroke-linecap:butt;stroke-linejoin:miter;stroke-miterlimit:4;stroke-dasharray:none;stroke-opacity:1"
           d="m 500.4916,334.14256 14.05281,-1.94035"
           id="path6952" />
        <path
           style="fill:#44aa00;fill-opacity:1;fill-rule:evenodd;stroke:#000000;stroke-width:2.00000024;stroke-linecap:butt;stroke-linejoin:miter;stroke-miterlimit:4;stroke-dasharray:none;stroke-opacity:1"
           d="m 498.08905,209.38036 12.80563,0 4.49029,-15.96546 c 3.02859,-15.35736 -17.29591,6.81857 -17.29591,6.81857 z"
           id="path6954" />
      </g>
      <path
         style="fill:#44aa00;fill-opacity:1;fill-rule:evenodd;stroke:#000000;stroke-width:1.00000012;stroke-linecap:butt;stroke-linejoin:miter;stroke-miterlimit:4;stroke-dasharray:none;stroke-opacity:1"
         d="m 571.44883,47.738434 -3.7561,411.831156"
         id="path6929" />
      <g
         id="g6931"
         style="fill:#44aa00;fill-opacity:1;stroke:#000000;stroke-width:0.50000006;stroke-miterlimit:4;stroke-dasharray:none;stroke-opacity:1">
        <path
           id="path6927"
           d="m 511.60862,348.09874 c 0.1663,9.31318 52.00096,86.29081 51.78024,111.24085 -0.14786,16.71426 -13.0375,24.49139 -10.91746,26.6091 3.18927,3.18577 15.13228,-10.45773 15.20108,-26.81576 0.10997,-26.14607 -47.8174,-107.08981 -47.8174,-107.08981 z"
           style="fill:#000000;fill-opacity:1;fill-rule:evenodd;stroke:#000000;stroke-width:0.50000006;stroke-linecap:butt;stroke-linejoin:miter;stroke-miterlimit:4;stroke-dasharray:none;stroke-opacity:1" />
        <path
           id="path6915"
           d="m 504.22269,194.08314 c 0,-30.42101 62.77841,-115.671637 62.59346,-142.349099 -0.13529,-19.514754 -12.71199,-23.514853 -10.95667,-26.887565 1.8381,-3.531777 15.20539,8.767042 15.58329,23.384735 0.8069,31.212103 -56.88163,118.183679 -57.83914,139.738629 z"
           style="fill:#000000;fill-opacity:1;fill-rule:evenodd;stroke:#000000;stroke-width:0.50000006;stroke-linecap:butt;stroke-linejoin:miter;stroke-miterlimit:4;stroke-dasharray:none;stroke-opacity:1" />
        <path
           id="path6919"
           d="m 515.13239,203.5514 -19.05067,-2.05794 0.0588,11.11289 -10.5837,55.74084 22.34337,0.0588 c 0,0 1.48914,-1.17788 1.58756,-3.70429 0.1764,-4.52801 -4.62131,-6.83571 -4.58628,-10.17212 0.013,-1.24028 10.23092,-50.97818 10.23092,-50.97818 z"
           style="fill:#44aa00;fill-opacity:1;fill-rule:evenodd;stroke:#000000;stroke-width:0.50000006;stroke-linecap:butt;stroke-linejoin:miter;stroke-miterlimit:4;stroke-dasharray:none;stroke-opacity:1" />
        <path
           id="path6921"
           d="m 507.90019,268.34719 -24.22492,-0.0588 0,7.0558 c 0,0 9.23134,22.69617 9.76053,26.28287 0.52918,3.5867 7.4433,36.87716 9.76053,41.21765 0,0 15.88251,11.17939 18.40388,8.81975 2.43157,-2.2756 -6.65458,-16.31475 -7.1146,-19.69745 L 507.6062,300.62748 496.02293,274.815 Z"
           style="fill:#44aa00;fill-opacity:1;fill-rule:evenodd;stroke:#000000;stroke-width:0.50000006;stroke-linecap:butt;stroke-linejoin:miter;stroke-miterlimit:4;stroke-dasharray:none;stroke-opacity:1" />
        <path
           id="path6923"
           d="m 507.7826,268.46479 c 1.35236,7.87898 -4.34473,2.34831 -6.82062,6.11503 -2.2754,3.46171 12.81805,15.93435 12.70044,18.69788 -0.1811,4.25567 -3.64548,5.93863 -3.64548,5.93863 -1.38358,1.04505 -5.2599,1.34704 -6.78386,1.18749 -3.90322,-0.40862 -14.55995,-24.40728 -14.55995,-26.35319 0,-3.88069 4.58628,-5.58583 4.58628,-5.58583 z"
           style="fill:#000000;fill-opacity:1;fill-rule:evenodd;stroke:#000000;stroke-width:0.50000006;stroke-linecap:butt;stroke-linejoin:miter;stroke-miterlimit:4;stroke-dasharray:none;stroke-opacity:1" />
        <path
           id="path6925"
           d="m 500.4916,334.14256 14.05281,-1.94035"
           style="fill:#44aa00;fill-opacity:1;fill-rule:evenodd;stroke:#000000;stroke-width:0.50000006;stroke-linecap:butt;stroke-linejoin:miter;stroke-miterlimit:4;stroke-dasharray:none;stroke-opacity:1" />
        <path
           id="path6917"
           d="m 498.08905,209.38036 12.80563,0 4.49029,-15.96546 c 3.02859,-15.35736 -17.29591,6.81857 -17.29591,6.81857 z"
           style="fill:#44aa00;fill-opacity:1;fill-rule:evenodd;stroke:#000000;stroke-width:0.50000006;stroke-linecap:butt;stroke-linejoin:miter;stroke-miterlimit:4;stroke-dasharray:none;stroke-opacity:1" />
      </g>
    </g>
    <g
       style="font-style:normal;font-variant:normal;font-weight:800;font-stretch:normal;font-size:29.40316582px;line-height:125%;font-family:'Rockwell Extra Bold';-inkscape-font-specification:'Rockwell Extra Bold, Ultra-Bold';text-align:start;letter-spacing:0px;word-spacing:0px;writing-mode:lr-tb;text-anchor:start;fill:#44aa00;fill-opacity:1;stroke:none;stroke-width:1.70000017;stroke-linecap:butt;stroke-linejoin:miter;stroke-miterlimit:4;stroke-dasharray:none;stroke-opacity:1"
       id="text8675">
      <path
         d="m 566.51695,332.41327 -19.00868,0 0,-4.78089 1.79462,0 0,-10.40883 -1.79462,0 0,-4.78089 11.41382,0 0,4.78089 -1.89512,0 0,10.40883 4.72346,0 0,-3.20161 4.76652,0 0,7.9825 z"
         style="stroke:none;stroke-width:1.70000017;stroke-miterlimit:4;stroke-dasharray:none;stroke-opacity:1"
         id="path4236" />
      <path
         d="m 575.53316,325.40705 q 0,3.33082 2.38326,3.33082 2.52684,0 2.52684,-3.35954 0,-1.5362 -0.61735,-2.38326 -0.63171,-0.84707 -1.78027,-0.84707 -1.13421,0 -1.82334,0.83271 -0.68914,0.83271 -0.68914,2.42634 z m -7.30772,-0.0287 q 0,-3.0724 2.58426,-5.18288 2.58427,-2.11048 6.97751,-2.11048 4.42196,0 7.19287,2.03869 2.7709,2.0387 2.7709,5.3121 0,3.15854 -2.64169,5.26902 -2.64169,2.11049 -6.97751,2.11049 -4.68039,0 -7.29336,-2.11049 -2.61298,-2.09612 -2.61298,-5.32645 z"
         style="stroke:none;stroke-width:1.70000017;stroke-miterlimit:4;stroke-dasharray:none;stroke-opacity:1"
         id="path4238" />
      <path
         d="m 601.04557,332.41327 -11.02618,0 0,-4.37889 1.79462,0 0,-5.16853 -1.79462,0 0,-4.37889 9.0162,0 0,1.76592 q 2.65605,-2.02434 5.69974,-2.02434 2.6704,0 4.01996,1.47877 1.3352,1.47877 1.3352,4.75217 l 0,3.5749 1.65106,0 0,4.37889 -8.87263,0 0,-6.18787 q 0,-2.02434 -0.34457,-2.67041 -0.37329,-0.63171 -1.42135,-0.63171 -0.96192,0 -2.06741,0.73221 l 0,4.37889 2.00998,0 0,4.37889 z"
         style="stroke:none;stroke-width:1.70000017;stroke-miterlimit:4;stroke-dasharray:none;stroke-opacity:1"
         id="path4240" />
      <path
         d="m 621.13104,325.53626 q 0,1.27777 0.64606,2.12484 0.64607,0.86142 1.8377,0.86142 1.26342,0 1.88077,-0.87578 0.61735,-0.84706 0.61735,-2.13919 0,-1.40699 -0.66042,-2.28277 -0.67478,-0.89014 -1.80899,-0.89014 -1.22034,0 -1.86641,0.93321 -0.64606,0.91885 -0.64606,2.26841 z m -6.10174,12.03118 1.98127,-3.53183 q 1.67977,0.7035 4.50811,0.7035 1.86641,0 2.91447,-0.53121 1.06242,-0.51686 1.36392,-1.22035 0.28714,-0.70349 0.28714,-1.99563 -2.16791,1.09114 -4.83832,1.09114 -3.11547,0 -5.25467,-1.78027 -2.1679,-1.76591 -2.1679,-4.89574 0,-3.30212 2.25405,-5.24031 2.23969,-1.9382 5.42695,-1.9382 2.61298,0 4.57989,1.14856 l 0,-0.89014 8.93006,0 0,4.37889 -1.7372,0 0,7.63794 q 0,2.55554 -0.45942,3.93382 -0.47379,1.37827 -1.69413,2.35455 -1.22035,1.01935 -3.05805,1.46441 -1.82334,0.47379 -4.83831,0.47379 -1.34956,0 -2.41198,-0.0862 -1.04806,-0.0861 -2.41198,-0.28714 -2.32583,-0.37328 -3.3739,-0.78963 z"
         style="stroke:none;stroke-width:1.70000017;stroke-miterlimit:4;stroke-dasharray:none;stroke-opacity:1"
         id="path4243" />
      <path
         d="m 648.07916,332.41327 -10.91133,0 0,-4.37889 1.72284,0 0,-5.16853 -1.75156,0 0,-4.37889 8.98749,0 0,1.90949 q 1.03371,-0.87578 2.71348,-1.52185 1.66541,-0.64606 3.18726,-0.64606 3.54618,0 4.75217,2.72783 3.20161,-2.72783 6.53244,-2.72783 1.82334,0 3.00062,0.77528 1.20598,0.78963 1.69412,2.09612 0.5025,1.34956 0.5025,3.79025 l 0,3.14419 1.8377,0 0,4.37889 -9.05928,0 0,-5.98688 q 0,-2.34019 -0.35893,-2.91447 -0.35892,-0.57428 -1.29213,-0.57428 -1.17727,0 -2.3689,0.89013 l 0,4.20661 1.96691,0 0,4.37889 -9.18849,0 0,-5.95816 q 0,-2.29712 -0.31586,-2.91448 -0.31585,-0.60299 -1.27777,-0.60299 -1.10549,0 -2.32584,0.89013 l 0,4.20661 1.95256,0 0,4.37889 z"
         style="stroke:none;stroke-width:1.70000017;stroke-miterlimit:4;stroke-dasharray:none;stroke-opacity:1"
         id="path4245" />
      <path
         d="m 679.70766,325.40705 q 0,3.33082 2.38326,3.33082 2.52684,0 2.52684,-3.35954 0,-1.5362 -0.61735,-2.38326 -0.63171,-0.84707 -1.78027,-0.84707 -1.13421,0 -1.82335,0.83271 -0.68913,0.83271 -0.68913,2.42634 z m -7.30772,-0.0287 q 0,-3.0724 2.58426,-5.18288 2.58426,-2.11048 6.97751,-2.11048 4.42196,0 7.19286,2.03869 2.77091,2.0387 2.77091,5.3121 0,3.15854 -2.64169,5.26902 -2.64169,2.11049 -6.97751,2.11049 -4.68039,0 -7.29337,-2.11049 -2.61297,-2.09612 -2.61297,-5.32645 z"
         style="stroke:none;stroke-width:1.70000017;stroke-miterlimit:4;stroke-dasharray:none;stroke-opacity:1"
         id="path4247" />
      <path
         d="m 705.22007,332.41327 -11.02619,0 0,-4.37889 1.79463,0 0,-5.16853 -1.79463,0 0,-4.37889 9.0162,0 0,1.76592 q 2.65605,-2.02434 5.69974,-2.02434 2.6704,0 4.01996,1.47877 1.33521,1.47877 1.33521,4.75217 l 0,3.5749 1.65105,0 0,4.37889 -8.87263,0 0,-6.18787 q 0,-2.02434 -0.34457,-2.67041 -0.37328,-0.63171 -1.42135,-0.63171 -0.96192,0 -2.06741,0.73221 l 0,4.37889 2.00999,0 0,4.37889 z"
         style="stroke:none;stroke-width:1.70000017;stroke-miterlimit:4;stroke-dasharray:none;stroke-opacity:1"
         id="path4249" />
      <path
         d="m 729.11014,327.33089 0,4.27839 q -0.7035,0.47378 -2.0387,0.8327 -1.40699,0.37329 -2.69912,0.37329 -1.62234,0 -2.78526,-0.53121 -1.19163,-0.54557 -1.79463,-1.46442 -0.33021,-0.53121 -0.48813,-0.96192 -0.15793,-0.44507 -0.22972,-0.99063 -0.1005,-0.94757 -0.1005,-3.66104 l 0,-2.3402 -1.78027,0 0,-4.37889 1.78027,0 0,-2.13919 7.22158,-3.43133 0,5.57052 2.91448,0 0,4.37889 -2.91448,0 0,2.69912 q 0,1.32085 0.24407,1.76592 0.22971,0.44506 0.97628,0.44506 0.70349,0 1.69413,-0.44506 z"
         style="stroke:none;stroke-width:1.70000017;stroke-miterlimit:4;stroke-dasharray:none;stroke-opacity:1"
         id="path4251" />
      <path
         d="m 732.46969,338.19915 0,-2.79962 q 1.14856,0 1.75156,-0.34457 0.60299,-0.35893 0.74656,-0.81835 0.15793,-0.47378 0.17228,-1.82334 l -2.6704,0 0,-5.22595 7.16415,0 0,4.46503 q 0,2.41198 -0.17228,3.28775 -0.17229,0.9045 -1.00499,1.75156 -0.81835,0.86142 -2.02434,1.19163 -1.16292,0.31586 -3.96254,0.31586 z"
         style="stroke:none;stroke-width:1.70000017;stroke-miterlimit:4;stroke-dasharray:none;stroke-opacity:1"
         id="path4253" />
      <path
         d="m 763.06448,323.61242 5.18289,1.82334 q -0.66043,3.20161 -3.02933,5.24031 -2.39762,2.05305 -6.60423,2.05305 -5.74281,0 -8.49935,-3.00061 -2.77091,-2.98626 -2.77091,-7.29337 0,-4.33581 2.71348,-7.36514 2.71348,-3.02933 7.04929,-3.02933 3.51747,0 5.72845,1.73719 l 0,-1.3352 4.79525,0 0,7.29337 -4.98189,0 q -0.38764,-1.36392 -1.30649,-2.15356 -0.91885,-0.77528 -2.09612,-0.77528 -3.24469,0 -3.24469,5.58488 0,5.59924 3.35954,5.59924 2.94319,0 3.70411,-4.37889 z"
         style="stroke:none;stroke-width:1.70000017;stroke-miterlimit:4;stroke-dasharray:none;stroke-opacity:1"
         id="path4255" />
      <path
         d="m 778.02449,325.40705 q 0,3.33082 2.38327,3.33082 2.52683,0 2.52683,-3.35954 0,-1.5362 -0.61735,-2.38326 -0.63171,-0.84707 -1.78027,-0.84707 -1.13421,0 -1.82334,0.83271 -0.68914,0.83271 -0.68914,2.42634 z m -7.30772,-0.0287 q 0,-3.0724 2.58426,-5.18288 2.58427,-2.11048 6.97751,-2.11048 4.42196,0 7.19287,2.03869 2.7709,2.0387 2.7709,5.3121 0,3.15854 -2.64169,5.26902 -2.64169,2.11049 -6.97751,2.11049 -4.68039,0 -7.29336,-2.11049 -2.61298,-2.09612 -2.61298,-5.32645 z"
         style="stroke:none;stroke-width:1.70000017;stroke-miterlimit:4;stroke-dasharray:none;stroke-opacity:1"
         id="path4257" />
      <path
         d="m 802.46012,332.41327 -9.97812,0 0,-4.37889 1.47877,0 0,-11.21283 -1.47877,0 0,-4.37889 8.70035,0 0,15.59172 1.27777,0 0,4.37889 z"
         style="stroke:none;stroke-width:1.70000017;stroke-miterlimit:4;stroke-dasharray:none;stroke-opacity:1"
         id="path4259" />
      <path
         d="m 812.02191,325.40705 q 0,3.33082 2.38327,3.33082 2.52683,0 2.52683,-3.35954 0,-1.5362 -0.61735,-2.38326 -0.63171,-0.84707 -1.78027,-0.84707 -1.1342,0 -1.82334,0.83271 -0.68914,0.83271 -0.68914,2.42634 z m -7.30772,-0.0287 q 0,-3.0724 2.58427,-5.18288 2.58426,-2.11048 6.9775,-2.11048 4.42196,0 7.19287,2.03869 2.7709,2.0387 2.7709,5.3121 0,3.15854 -2.64169,5.26902 -2.64169,2.11049 -6.97751,2.11049 -4.68038,0 -7.29336,-2.11049 -2.61298,-2.09612 -2.61298,-5.32645 z"
         style="stroke:none;stroke-width:1.70000017;stroke-miterlimit:4;stroke-dasharray:none;stroke-opacity:1"
         id="path4261" />
      <path
         d="m 837.67789,332.41327 -11.22718,0 0,-4.37889 1.89512,0 0,-5.16853 -1.89512,0 0,-4.37889 8.64292,0 0,3.48876 q 0.48814,-1.30649 1.50749,-2.25405 0.97627,-0.93321 1.98126,-1.22035 0.96192,-0.27278 2.82834,-0.27278 l 0,6.13044 q -0.24407,-0.0143 -0.603,-0.0143 -2.21098,0 -3.28776,0.44506 -1.11984,0.45943 -1.52184,1.20599 -0.41635,0.77528 -0.43071,2.0387 l 2.11048,0 0,4.37889 z"
         style="stroke:none;stroke-width:1.70000017;stroke-miterlimit:4;stroke-dasharray:none;stroke-opacity:1"
         id="path4263" />
      <path
         d="m 853.64288,328.85273 0,-2.54119 q -0.96192,-0.51685 -2.03869,-0.51685 -0.94757,0 -1.50749,0.51685 -0.55992,0.53121 -0.55992,1.34956 0,0.84706 0.57428,1.37827 0.58863,0.54557 1.34956,0.54557 1.34956,0 2.18226,-0.73221 z m -5.41259,-6.47501 -5.65667,-0.57428 q 0.93321,-2.05306 3.01498,-2.88576 2.05305,-0.83271 6.05866,-0.83271 1.47877,0 2.64169,0.1005 1.17727,0.0861 2.09612,0.27278 1.90948,0.35893 2.82833,1.10549 0.91885,0.76092 1.27778,1.6367 0.37328,0.90449 0.37328,2.81398 l 0,4.01996 1.78027,0 0,4.37889 -9.00185,0 0,-0.94756 q -1.86641,1.20599 -4.99624,1.20599 -2.94319,0 -4.43632,-1.29214 -1.50748,-1.29213 -1.50748,-3.05804 0,-1.95255 1.85205,-3.20161 1.8377,-1.24906 4.79524,-1.24906 2.69912,0 4.29275,0.70349 l 0,-0.41635 q 0,-1.29214 -0.18664,-1.80899 -0.201,-0.54556 -0.89013,-0.9332 -0.71785,-0.37329 -1.66542,-0.37329 -1.7372,0 -2.6704,1.33521 z"
         style="stroke:none;stroke-width:1.70000017;stroke-miterlimit:4;stroke-dasharray:none;stroke-opacity:1"
         id="path4265" />
      <path
         d="m 876.95866,325.39269 q 0,-1.30649 -0.60299,-2.18227 -0.603,-0.86142 -1.79463,-0.86142 -2.45505,0 -2.45505,3.1729 0,1.30649 0.603,2.15355 0.58863,0.86143 1.79462,0.86143 1.09114,0 1.78027,-0.76093 0.67478,-0.76092 0.67478,-2.38326 z m 8.98749,2.64169 0,4.37889 -9.03056,0 0,-0.93321 q -2.00998,1.19164 -4.65167,1.19164 -2.94319,0 -5.2116,-1.79463 -2.26841,-1.79463 -2.26841,-5.13981 0,-3.60361 2.09613,-5.57052 2.09612,-1.9382 5.61359,-1.9382 2.58426,0 4.42196,1.14856 l 0,-2.55555 -1.78027,0 0,-4.37889 9.00185,0 0,15.59172 1.80898,0 z"
         style="stroke:none;stroke-width:1.70000017;stroke-miterlimit:4;stroke-dasharray:none;stroke-opacity:1"
         id="path4268" />
      <path
         d="m 895.52231,325.40705 q 0,3.33082 2.38326,3.33082 2.52684,0 2.52684,-3.35954 0,-1.5362 -0.61735,-2.38326 -0.63171,-0.84707 -1.78027,-0.84707 -1.13421,0 -1.82334,0.83271 -0.68914,0.83271 -0.68914,2.42634 z m -7.30772,-0.0287 q 0,-3.0724 2.58426,-5.18288 2.58426,-2.11048 6.97751,-2.11048 4.42196,0 7.19287,2.03869 2.7709,2.0387 2.7709,5.3121 0,3.15854 -2.64169,5.26902 -2.64169,2.11049 -6.97751,2.11049 -4.68039,0 -7.29336,-2.11049 -2.61298,-2.09612 -2.61298,-5.32645 z"
         style="stroke:none;stroke-width:1.70000017;stroke-miterlimit:4;stroke-dasharray:none;stroke-opacity:1"
         id="path4270" />
    </g>
  </g>
</svg>
